<?xml version="1.0" standalone="no"?>
<!DOCTYPE svg PUBLIC "-//W3C//DTD SVG 20010904//EN"
 "http://www.w3.org/TR/2001/REC-SVG-20010904/DTD/svg10.dtd">
<svg version="1.0" xmlns="http://www.w3.org/2000/svg"
 width="830.000000pt" height="830.000000pt" viewBox="0 0 830.000000 830.000000"
 preserveAspectRatio="xMidYMid meet">
<metadata>
Created by potrace 1.16, written by Peter Selinger 2001-2019
</metadata>
<g transform="translate(0.000000,830.000000) scale(0.100000,-0.100000)"
fill="#000000" stroke="none">
<path d="M1739 7006 c-215 -60 -394 -245 -438 -454 -8 -38 -11 -713 -11 -2432
l0 -2379 25 -79 c56 -178 198 -326 378 -394 l62 -23 1133 -3 1132 -2 0 1270 0
1270 -260 0 -260 0 0 445 0 445 259 0 260 0 3 488 c4 468 5 490 26 559 44 145
95 235 192 337 167 176 374 278 623 305 55 6 299 11 567 11 l470 0 0 -97 c0
-54 1 -258 1 -453 l1 -355 -319 -5 -318 -5 -52 -29 c-115 -63 -129 -124 -118
-498 l7 -258 409 0 409 0 -5 -22 c-6 -29 -32 -231 -50 -395 -3 -27 -12 -95
-21 -153 -21 -149 -23 -160 -29 -210 -3 -25 -8 -60 -11 -78 l-5 -32 -355 2
-354 3 0 -1272 0 -1273 730 0 c500 0 746 4 782 11 174 37 338 169 413 334 64
139 60 -42 60 2545 0 2230 -1 2369 -18 2430 -57 211 -208 371 -408 435 l-80
25 -2392 -1 c-1899 -1 -2401 -3 -2438 -13z"/>
</g>
</svg>
