<?xml version="1.0" standalone="no"?>
<!DOCTYPE svg PUBLIC "-//W3C//DTD SVG 20010904//EN"
 "http://www.w3.org/TR/2001/REC-SVG-20010904/DTD/svg10.dtd">
<svg version="1.0" xmlns="http://www.w3.org/2000/svg"
 width="505.000000pt" height="344.000000pt" viewBox="0 0 505.000000 344.000000"
 preserveAspectRatio="xMidYMid meet">
<metadata>
Created by potrace 1.16, written by Peter Selinger 2001-2019
</metadata>
<g transform="translate(0.000000,344.000000) scale(0.100000,-0.100000)"
fill="#000000" stroke="none">
<path d="M1505 3104 c-561 -101 -1032 -558 -1144 -1109 -99 -487 47 -965 400
-1315 383 -380 952 -506 1481 -330 410 137 709 457 822 880 47 173 60 307 57
583 l-1 87 -680 0 -680 0 0 -245 0 -245 405 0 c223 0 405 -4 405 -8 0 -24 -36
-125 -65 -182 -94 -184 -287 -332 -511 -391 -115 -30 -296 -36 -404 -15 -324
65 -578 299 -677 623 -24 80 -27 104 -27 253 -1 140 2 177 21 246 55 200 158
356 312 472 104 79 154 106 263 144 90 32 98 33 253 33 144 0 170 -3 260 -28
91 -25 255 -97 329 -144 l28 -18 174 179 c96 99 174 186 174 193 0 21 -199
152 -325 213 -136 66 -247 103 -372 125 -110 19 -388 19 -498 -1z"/>
<path d="M4000 2105 l0 -205 -205 0 -205 0 0 -200 c0 -183 1 -200 18 -201 9
-1 26 -2 37 -3 11 -1 95 -3 187 -4 l168 -2 2 -201 3 -200 200 -2 200 -2 3 203
2 202 168 0 c92 0 184 3 205 6 l37 7 0 198 0 199 -205 0 -205 0 0 205 0 205
-205 0 -205 0 0 -205z"/>
</g>
</svg>
