<?xml version="1.0" standalone="no"?>
<!DOCTYPE svg PUBLIC "-//W3C//DTD SVG 20010904//EN"
 "http://www.w3.org/TR/2001/REC-SVG-20010904/DTD/svg10.dtd">
<svg version="1.0" xmlns="http://www.w3.org/2000/svg"
 width="310.000000pt" height="308.000000pt" viewBox="0 0 310.000000 308.000000"
 preserveAspectRatio="xMidYMid meet">
<metadata>
Created by potrace 1.16, written by Peter Selinger 2001-2019
</metadata>
<g transform="translate(0.000000,308.000000) scale(0.100000,-0.100000)"
fill="#000000" stroke="none">
<path d="M1480 2650 c-108 -15 -227 -76 -295 -152 -49 -54 -93 -125 -105 -168
-9 -34 -13 -37 -69 -48 -184 -38 -430 -139 -594 -243 -61 -39 -124 -73 -141
-76 -107 -20 -195 -109 -212 -211 -8 -54 7 -78 71 -109 65 -30 89 -64 104
-147 14 -77 14 -206 0 -206 -5 0 -42 14 -81 30 -38 16 -83 30 -99 30 -35 0
-64 -38 -55 -74 6 -25 29 -38 178 -102 l67 -29 1 -272 c0 -261 1 -275 25 -350
72 -227 269 -420 513 -502 60 -20 81 -21 753 -21 778 0 747 -3 900 76 144 74
289 225 355 369 50 108 54 141 54 430 l0 270 106 45 c58 24 114 53 125 63 38
36 12 97 -42 97 -14 0 -56 -13 -94 -30 -39 -16 -76 -30 -82 -30 -29 0 -8 237
25 294 11 18 40 41 74 58 67 33 83 56 74 110 -17 103 -103 189 -215 213 -18 4
-70 31 -115 60 -175 114 -468 234 -638 261 -33 6 -39 11 -48 43 -23 86 -137
219 -226 264 -105 52 -210 71 -314 57z m223 -153 c37 -17 81 -49 118 -87 66
-67 76 -94 32 -85 -54 11 -440 16 -533 7 -52 -5 -96 -8 -98 -6 -9 7 32 65 71
101 83 77 158 104 272 100 61 -2 94 -10 138 -30z m171 -302 c213 -30 438 -99
601 -183 l60 -31 -972 -1 c-534 0 -978 -3 -987 -6 -9 -3 -16 -2 -16 2 1 12
163 85 270 123 153 54 314 88 515 111 111 12 398 4 529 -15z m928 -355 c43
-12 98 -55 98 -76 0 -8 -4 -14 -9 -14 -17 0 -103 -84 -120 -119 -37 -72 -41
-131 -41 -564 0 -469 -2 -490 -65 -604 -76 -138 -213 -258 -358 -311 -97 -36
-204 -41 -822 -38 -522 4 -596 6 -645 21 -228 71 -421 270 -460 475 -6 30 -10
233 -10 466 0 415 -5 483 -37 549 -20 39 -71 93 -105 111 -34 18 -35 34 -4 63
55 52 12 50 1321 51 810 0 1233 -4 1257 -10z"/>
</g>
</svg>
