<?xml version="1.0" standalone="no"?>
<!DOCTYPE svg PUBLIC "-//W3C//DTD SVG 20010904//EN"
 "http://www.w3.org/TR/2001/REC-SVG-20010904/DTD/svg10.dtd">
<svg version="1.0" xmlns="http://www.w3.org/2000/svg"
 width="430.000000pt" height="380.000000pt" viewBox="0 0 430.000000 380.000000"
 preserveAspectRatio="xMidYMid meet">
<metadata>
Created by potrace 1.16, written by Peter Selinger 2001-2019
</metadata>
<g transform="translate(0.000000,380.000000) scale(0.100000,-0.100000)"
fill="#000000" stroke="none">
<path d="M2804 3426 c-153 -35 -268 -100 -389 -221 -74 -73 -100 -107 -138
-182 -26 -51 -57 -128 -68 -170 -22 -84 -30 -240 -16 -331 l8 -52 -58 6 c-308
31 -587 110 -837 236 -256 131 -475 300 -672 521 l-61 68 -31 -68 c-49 -108
-63 -170 -69 -294 -6 -132 11 -239 54 -342 52 -121 142 -244 227 -308 25 -19
46 -37 46 -40 1 -20 -218 34 -292 72 -21 11 -40 19 -43 19 -11 0 -4 -78 14
-166 41 -200 160 -380 325 -494 63 -43 168 -93 231 -110 l49 -14 -29 -9 c-17
-5 -94 -10 -172 -10 -164 -1 -156 8 -98 -107 68 -135 169 -245 296 -321 106
-63 183 -89 344 -115 l40 -6 -29 -23 c-15 -12 -74 -50 -130 -84 -254 -153
-553 -229 -865 -219 -128 4 -131 3 -109 -14 13 -10 93 -53 178 -96 438 -221
948 -293 1446 -203 795 145 1431 711 1694 1508 75 229 119 495 120 723 l1 85
90 74 c117 96 337 349 284 327 -124 -52 -401 -124 -415 -109 -3 3 1 8 8 10 30
11 143 117 187 175 46 61 132 224 123 233 -2 2 -43 -16 -90 -40 -89 -47 -292
-119 -364 -131 -40 -6 -45 -4 -107 49 -81 68 -169 118 -272 153 -67 22 -101
27 -215 30 -92 2 -155 -1 -196 -10z"/>
</g>
</svg>
